<svg width="368" height="182" viewBox="0 0 368 182" fill="none" xmlns="http://www.w3.org/2000/svg">
<mask id="mask0_5901_2" style="mask-type:alpha" maskUnits="userSpaceOnUse" x="-1" y="0" width="369" height="182">
<rect x="-0.0078125" width="368" height="182" fill="#F9FAFC"/>
</mask>
<g mask="url(#mask0_5901_2)">
<rect x="-0.0078125" width="368" height="182" fill="url(#paint0_radial_5901_2)"/>
<path d="M449.197 357.321C536.903 306.683 566.954 194.533 516.317 106.827C465.679 19.12 353.529 -10.9307 265.823 39.7066C178.116 90.3439 148.065 202.494 198.703 290.201C249.34 377.907 361.49 407.958 449.197 357.321Z" fill="url(#paint1_linear_5901_2)"/>
<path d="M380.631 238.269C402.558 225.61 410.071 197.572 397.411 175.646C384.752 153.719 356.714 146.206 334.788 158.866C312.861 171.525 305.348 199.562 318.008 221.489C330.667 243.416 358.705 250.928 380.631 238.269Z" fill="url(#paint2_linear_5901_2)"/>
<path d="M403.755 278.024C447.608 252.705 462.633 196.63 437.315 152.777C411.996 108.924 355.921 93.8983 312.068 119.217C268.214 144.536 253.189 200.611 278.508 244.464C303.826 288.317 359.901 303.343 403.755 278.024Z" fill="url(#paint3_linear_5901_2)"/>
<path d="M426.073 317.562C491.853 279.584 514.391 195.472 476.413 129.692C438.435 63.9116 354.323 41.3736 288.543 79.3516C222.763 117.33 200.225 201.442 238.203 267.222C276.181 333.002 360.293 355.54 426.073 317.562Z" fill="url(#paint4_linear_5901_2)"/>
<path d="M516.31 106.807C465.672 19.1007 353.522 -10.9499 265.815 39.6876C178.109 90.3251 148.058 202.475 198.696 290.182C249.333 377.889 361.483 407.939 449.19 357.302C536.897 306.664 566.947 194.514 516.31 106.807Z" fill="url(#paint5_linear_5901_2)" stroke="url(#paint6_linear_5901_2)" stroke-width="8.16255" stroke-miterlimit="10"/>
<path d="M397.24 175.363C384.58 153.436 356.543 145.923 334.616 158.583C312.689 171.242 305.177 199.28 317.836 221.206C330.495 243.133 358.533 250.646 380.46 237.986C402.386 225.327 409.899 197.289 397.24 175.363Z" fill="url(#paint7_linear_5901_2)" stroke="url(#paint8_linear_5901_2)" stroke-width="8.16255" stroke-miterlimit="10"/>
<path d="M437.002 152.245C411.684 108.392 355.609 93.3667 311.755 118.685C267.902 144.004 252.877 200.079 278.195 243.933C303.514 287.786 359.589 302.811 403.443 277.493C447.296 252.174 462.321 196.099 437.002 152.245Z" fill="url(#paint9_linear_5901_2)" stroke="url(#paint10_linear_5901_2)" stroke-width="8.16255" stroke-miterlimit="10"/>
<path d="M476.539 129.924C438.561 64.1436 354.448 41.6057 288.668 79.5838C222.888 117.562 200.35 201.675 238.328 267.455C276.306 333.235 360.419 355.773 426.199 317.794C491.979 279.816 514.517 195.704 476.539 129.924Z" fill="url(#paint11_linear_5901_2)" stroke="url(#paint12_linear_5901_2)" stroke-width="8.16255" stroke-miterlimit="10"/>
<path d="M-94.1889 -170.313C-181.896 -119.676 -211.946 -7.52562 -161.309 80.1811C-110.672 167.888 1.47838 197.939 89.1851 147.301C176.892 96.6639 206.943 -15.4861 156.305 -103.193C105.668 -190.9 -6.48214 -220.95 -94.1889 -170.313Z" fill="url(#paint13_linear_5901_2)"/>
<path d="M-25.6234 -51.2613C-47.5501 -38.602 -55.0627 -10.5645 -42.4034 11.3622C-29.7441 33.2889 -1.70658 40.8015 20.2201 28.1422C42.1468 15.4829 49.6595 -12.5546 37.0001 -34.4813C24.3408 -56.408 -3.69671 -63.9207 -25.6234 -51.2613Z" fill="url(#paint14_linear_5901_2)"/>
<path d="M-48.7468 -91.0163C-92.6001 -65.6977 -107.625 -9.62267 -82.3068 34.2307C-56.9882 78.0841 -0.913152 93.1094 42.9402 67.7908C86.7936 42.4721 101.819 -13.6029 76.5003 -57.4563C51.1816 -101.31 -4.89341 -116.335 -48.7468 -91.0163Z" fill="url(#paint15_linear_5901_2)"/>
<path d="M-71.0655 -130.555C-136.846 -92.5765 -159.384 -8.46403 -121.406 57.316C-83.4276 123.096 0.684939 145.634 66.465 107.656C132.245 69.6781 154.783 -14.4344 116.805 -80.2144C78.8271 -145.995 -5.28544 -168.533 -71.0655 -130.555Z" fill="url(#paint16_linear_5901_2)"/>
<path d="M-161.302 80.2004C-110.664 167.907 1.48585 197.958 89.1926 147.32C176.899 96.6827 206.95 -15.4674 156.312 -103.174C105.675 -190.881 -6.47533 -220.931 -94.182 -170.294C-181.889 -119.656 -211.939 -7.50627 -161.302 80.2004Z" fill="url(#paint17_linear_5901_2)" stroke="url(#paint18_linear_5901_2)" stroke-width="8.16255" stroke-miterlimit="10"/>
<path d="M-42.2317 11.6448C-29.5723 33.5715 -1.53479 41.0841 20.3919 28.4247C42.3186 15.7653 49.8312 -12.2722 37.1718 -34.1989C24.5125 -56.1255 -3.52508 -63.6382 -25.4518 -50.9788C-47.3784 -38.3194 -54.8911 -10.2819 -42.2317 11.6448Z" fill="url(#paint19_linear_5901_2)" stroke="url(#paint20_linear_5901_2)" stroke-width="8.16255" stroke-miterlimit="10"/>
<path d="M-81.9946 34.7625C-56.6759 78.6158 -0.600824 93.6411 43.2525 68.3223C87.1059 43.0036 102.131 -13.0715 76.8124 -56.9248C51.4937 -100.778 -4.58142 -115.803 -48.4348 -90.4847C-92.2881 -65.166 -107.313 -9.09091 -81.9946 34.7625Z" fill="url(#paint21_linear_5901_2)" stroke="url(#paint22_linear_5901_2)" stroke-width="8.16255" stroke-miterlimit="10"/>
<path d="M-121.531 57.084C-83.5529 122.864 0.559665 145.402 66.3397 107.424C132.12 69.4457 154.658 -14.6669 116.68 -80.4469C78.7014 -146.227 -5.4112 -168.765 -71.1913 -130.787C-136.971 -92.8086 -159.509 -8.696 -121.531 57.084Z" fill="url(#paint23_linear_5901_2)" stroke="url(#paint24_linear_5901_2)" stroke-width="8.16255" stroke-miterlimit="10"/>
<g filter="url(#filter0_b_5901_2)">
<rect x="28" y="57" width="314" height="68" rx="34" fill="url(#paint25_radial_5901_2)"/>
<rect x="55" y="85.5" width="56" height="11" rx="5.5" fill="#7076C2"/>
<rect x="134" y="67" width="102" height="48" rx="24" fill="#7076C2"/>
<rect x="157" y="85" width="56" height="12" rx="6" fill="#2C317A"/>
<rect x="259" y="85.5" width="56" height="11" rx="5.5" fill="#7076C2"/>
</g>
</g>
<defs>
<filter id="filter0_b_5901_2" x="23" y="52" width="324" height="78" filterUnits="userSpaceOnUse" color-interpolation-filters="sRGB">
<feFlood flood-opacity="0" result="BackgroundImageFix"/>
<feGaussianBlur in="BackgroundImageFix" stdDeviation="2.5"/>
<feComposite in2="SourceAlpha" operator="in" result="effect1_backgroundBlur_5901_2"/>
<feBlend mode="normal" in="SourceGraphic" in2="effect1_backgroundBlur_5901_2" result="shape"/>
</filter>
<radialGradient id="paint0_radial_5901_2" cx="0" cy="0" r="1" gradientUnits="userSpaceOnUse" gradientTransform="translate(183.992 91) rotate(90) scale(91 184)">
<stop stop-color="#9BA2FF" stop-opacity="0.6"/>
<stop offset="1" stop-color="#9BA2FF" stop-opacity="0.14"/>
</radialGradient>
<linearGradient id="paint1_linear_5901_2" x1="532.646" y1="137.897" x2="262.523" y2="-329.971" gradientUnits="userSpaceOnUse">
<stop stop-color="#9BA2FF" stop-opacity="0"/>
<stop offset="1" stop-color="#9BA2FF"/>
</linearGradient>
<linearGradient id="paint2_linear_5901_2" x1="401.494" y1="183.413" x2="333.963" y2="66.4463" gradientUnits="userSpaceOnUse">
<stop stop-color="#9BA2FF" stop-opacity="0"/>
<stop offset="1" stop-color="#9BA2FF"/>
</linearGradient>
<linearGradient id="paint3_linear_5901_2" x1="445.479" y1="168.312" x2="310.418" y2="-65.6217" gradientUnits="userSpaceOnUse">
<stop stop-color="#9BA2FF" stop-opacity="0"/>
<stop offset="1" stop-color="#9BA2FF"/>
</linearGradient>
<linearGradient id="paint4_linear_5901_2" x1="488.661" y1="152.995" x2="286.068" y2="-197.906" gradientUnits="userSpaceOnUse">
<stop stop-color="#9BA2FF" stop-opacity="0"/>
<stop offset="1" stop-color="#9BA2FF"/>
</linearGradient>
<linearGradient id="paint5_linear_5901_2" x1="296.886" y1="23.3579" x2="-170.982" y2="293.482" gradientUnits="userSpaceOnUse">
<stop stop-color="#9BA2FF" stop-opacity="0"/>
<stop offset="1" stop-color="#9BA2FF"/>
</linearGradient>
<linearGradient id="paint6_linear_5901_2" x1="502.854" y1="363.283" x2="395.596" y2="177.507" gradientUnits="userSpaceOnUse">
<stop stop-color="#9BA2FF"/>
<stop offset="1" stop-color="#9BA2FF" stop-opacity="0"/>
</linearGradient>
<linearGradient id="paint7_linear_5901_2" x1="342.384" y1="154.5" x2="225.417" y2="222.031" gradientUnits="userSpaceOnUse">
<stop stop-color="#9BA2FF" stop-opacity="0"/>
<stop offset="1" stop-color="#9BA2FF"/>
</linearGradient>
<linearGradient id="paint8_linear_5901_2" x1="393.876" y1="239.482" x2="367.061" y2="193.038" gradientUnits="userSpaceOnUse">
<stop stop-color="#9BA2FF"/>
<stop offset="1" stop-color="#9BA2FF" stop-opacity="0"/>
</linearGradient>
<linearGradient id="paint9_linear_5901_2" x1="327.291" y1="110.521" x2="93.3567" y2="245.583" gradientUnits="userSpaceOnUse">
<stop stop-color="#9BA2FF" stop-opacity="0"/>
<stop offset="1" stop-color="#9BA2FF"/>
</linearGradient>
<linearGradient id="paint10_linear_5901_2" x1="430.275" y1="280.483" x2="376.646" y2="187.595" gradientUnits="userSpaceOnUse">
<stop stop-color="#9BA2FF"/>
<stop offset="1" stop-color="#9BA2FF" stop-opacity="0"/>
</linearGradient>
<linearGradient id="paint11_linear_5901_2" x1="311.971" y1="67.3366" x2="-38.9299" y2="269.93" gradientUnits="userSpaceOnUse">
<stop stop-color="#9BA2FF" stop-opacity="0"/>
<stop offset="1" stop-color="#9BA2FF"/>
</linearGradient>
<linearGradient id="paint12_linear_5901_2" x1="466.447" y1="322.28" x2="386.004" y2="182.948" gradientUnits="userSpaceOnUse">
<stop stop-color="#9BA2FF"/>
<stop offset="1" stop-color="#9BA2FF" stop-opacity="0"/>
</linearGradient>
<linearGradient id="paint13_linear_5901_2" x1="-177.639" y1="49.1106" x2="92.4847" y2="516.978" gradientUnits="userSpaceOnUse">
<stop stop-color="#9BA2FF" stop-opacity="0"/>
<stop offset="1" stop-color="#9BA2FF"/>
</linearGradient>
<linearGradient id="paint14_linear_5901_2" x1="-46.4858" y1="3.59454" x2="21.045" y2="120.562" gradientUnits="userSpaceOnUse">
<stop stop-color="#9BA2FF" stop-opacity="0"/>
<stop offset="1" stop-color="#9BA2FF"/>
</linearGradient>
<linearGradient id="paint15_linear_5901_2" x1="-90.4716" y1="18.6954" x2="44.59" y2="252.629" gradientUnits="userSpaceOnUse">
<stop stop-color="#9BA2FF" stop-opacity="0"/>
<stop offset="1" stop-color="#9BA2FF"/>
</linearGradient>
<linearGradient id="paint16_linear_5901_2" x1="-133.653" y1="34.0131" x2="68.9397" y2="384.914" gradientUnits="userSpaceOnUse">
<stop stop-color="#9BA2FF" stop-opacity="0"/>
<stop offset="1" stop-color="#9BA2FF"/>
</linearGradient>
<linearGradient id="paint17_linear_5901_2" x1="58.122" y1="163.65" x2="525.99" y2="-106.474" gradientUnits="userSpaceOnUse">
<stop stop-color="#9BA2FF" stop-opacity="0"/>
<stop offset="1" stop-color="#9BA2FF"/>
</linearGradient>
<linearGradient id="paint18_linear_5901_2" x1="-147.846" y1="-176.275" x2="-40.5884" y2="9.50109" gradientUnits="userSpaceOnUse">
<stop stop-color="#9BA2FF"/>
<stop offset="1" stop-color="#9BA2FF" stop-opacity="0"/>
</linearGradient>
<linearGradient id="paint19_linear_5901_2" x1="12.6242" y1="32.5071" x2="129.591" y2="-35.0239" gradientUnits="userSpaceOnUse">
<stop stop-color="#9BA2FF" stop-opacity="0"/>
<stop offset="1" stop-color="#9BA2FF"/>
</linearGradient>
<linearGradient id="paint20_linear_5901_2" x1="-38.8678" y1="-52.474" x2="-12.0534" y2="-6.03006" gradientUnits="userSpaceOnUse">
<stop stop-color="#9BA2FF"/>
<stop offset="1" stop-color="#9BA2FF" stop-opacity="0"/>
</linearGradient>
<linearGradient id="paint21_linear_5901_2" x1="27.7172" y1="76.4872" x2="261.651" y2="-58.5749" gradientUnits="userSpaceOnUse">
<stop stop-color="#9BA2FF" stop-opacity="0"/>
<stop offset="1" stop-color="#9BA2FF"/>
</linearGradient>
<linearGradient id="paint22_linear_5901_2" x1="-75.2669" y1="-93.4751" x2="-21.638" y2="-0.587225" gradientUnits="userSpaceOnUse">
<stop stop-color="#9BA2FF"/>
<stop offset="1" stop-color="#9BA2FF" stop-opacity="0"/>
</linearGradient>
<linearGradient id="paint23_linear_5901_2" x1="43.0368" y1="119.671" x2="393.938" y2="-82.9221" gradientUnits="userSpaceOnUse">
<stop stop-color="#9BA2FF" stop-opacity="0"/>
<stop offset="1" stop-color="#9BA2FF"/>
</linearGradient>
<linearGradient id="paint24_linear_5901_2" x1="-111.44" y1="-135.272" x2="-30.996" y2="4.05951" gradientUnits="userSpaceOnUse">
<stop stop-color="#9BA2FF"/>
<stop offset="1" stop-color="#9BA2FF" stop-opacity="0"/>
</linearGradient>
<radialGradient id="paint25_radial_5901_2" cx="0" cy="0" r="1" gradientUnits="userSpaceOnUse" gradientTransform="translate(185 91) scale(157 34)">
<stop stop-color="white"/>
<stop offset="1" stop-color="white" stop-opacity="0.24"/>
</radialGradient>
</defs>
</svg>
