<svg width="368" height="182" viewBox="0 0 368 182" fill="none" xmlns="http://www.w3.org/2000/svg">
<mask id="mask0_5901_2" style="mask-type:alpha" maskUnits="userSpaceOnUse" x="-1" y="0" width="369" height="182">
<path d="M-0.0078125 0H367.992V182H-0.0078125V0Z" fill="#F9FAFC"/>
</mask>
<g mask="url(#mask0_5901_2)">
<path d="M-0.0078125 0H367.992V182H-0.0078125V0Z" fill="url(#paint0_radial_5901_2)"/>
<path d="M449.197 357.321C536.903 306.683 566.954 194.533 516.317 106.827C465.679 19.12 353.529 -10.9307 265.823 39.7066C178.116 90.3439 148.065 202.494 198.703 290.201C249.34 377.907 361.49 407.958 449.197 357.321Z" fill="url(#paint1_linear_5901_2)"/>
<path d="M380.631 238.269C402.558 225.61 410.071 197.572 397.411 175.646C384.752 153.719 356.714 146.206 334.788 158.866C312.861 171.525 305.348 199.562 318.008 221.489C330.667 243.416 358.705 250.928 380.631 238.269Z" fill="url(#paint2_linear_5901_2)"/>
<path d="M403.755 278.024C447.608 252.705 462.633 196.63 437.315 152.777C411.996 108.924 355.921 93.8983 312.068 119.217C268.214 144.536 253.189 200.611 278.508 244.464C303.826 288.317 359.901 303.343 403.755 278.024Z" fill="url(#paint3_linear_5901_2)"/>
<path d="M426.073 317.562C491.853 279.584 514.391 195.472 476.413 129.692C438.435 63.9116 354.323 41.3736 288.543 79.3516C222.763 117.33 200.225 201.442 238.203 267.222C276.181 333.002 360.293 355.54 426.073 317.562Z" fill="url(#paint4_linear_5901_2)"/>
<path d="M516.31 106.807C465.672 19.1007 353.522 -10.9499 265.815 39.6876C178.109 90.3251 148.058 202.475 198.696 290.182C249.333 377.889 361.483 407.939 449.19 357.302C536.897 306.664 566.947 194.514 516.31 106.807Z" fill="url(#paint5_linear_5901_2)" stroke="url(#paint6_linear_5901_2)" stroke-width="8.16255" stroke-miterlimit="10"/>
<path d="M397.24 175.363C384.58 153.436 356.543 145.923 334.616 158.583C312.689 171.242 305.177 199.28 317.836 221.206C330.495 243.133 358.533 250.646 380.46 237.986C402.386 225.327 409.899 197.289 397.24 175.363Z" fill="url(#paint7_linear_5901_2)" stroke="url(#paint8_linear_5901_2)" stroke-width="8.16255" stroke-miterlimit="10"/>
<path d="M437.002 152.245C411.684 108.392 355.609 93.3667 311.755 118.685C267.902 144.004 252.877 200.079 278.195 243.933C303.514 287.786 359.589 302.811 403.443 277.493C447.296 252.174 462.321 196.099 437.002 152.245Z" fill="url(#paint9_linear_5901_2)" stroke="url(#paint10_linear_5901_2)" stroke-width="8.16255" stroke-miterlimit="10"/>
<path d="M476.539 129.924C438.561 64.1436 354.448 41.6057 288.668 79.5838C222.888 117.562 200.35 201.675 238.328 267.455C276.306 333.235 360.419 355.773 426.199 317.794C491.979 279.816 514.517 195.704 476.539 129.924Z" fill="url(#paint11_linear_5901_2)" stroke="url(#paint12_linear_5901_2)" stroke-width="8.16255" stroke-miterlimit="10"/>
<path d="M-94.1889 -170.321C-181.896 -119.683 -211.946 -7.53319 -161.309 80.1736C-110.672 167.88 1.47838 197.931 89.1851 147.294C176.892 96.6563 206.943 -15.4937 156.305 -103.2C105.668 -190.907 -6.48214 -220.958 -94.1889 -170.321Z" fill="url(#paint13_linear_5901_2)"/>
<path d="M-25.6234 -51.2689C-47.5501 -38.6096 -55.0627 -10.5721 -42.4034 11.3546C-29.7441 33.2813 -1.70658 40.794 20.2201 28.1346C42.1468 15.4753 49.6595 -12.5622 37.0001 -34.4889C24.3408 -56.4156 -3.69671 -63.9282 -25.6234 -51.2689Z" fill="url(#paint14_linear_5901_2)"/>
<path d="M-48.7468 -91.0239C-92.6001 -65.7052 -107.625 -9.63024 -82.3068 34.2231C-56.9882 78.0765 -0.913152 93.1018 42.9402 67.7832C86.7936 42.4645 101.819 -13.6105 76.5003 -57.4638C51.1816 -101.317 -4.89341 -116.343 -48.7468 -91.0239Z" fill="url(#paint15_linear_5901_2)"/>
<path d="M-71.0655 -130.562C-136.846 -92.5841 -159.384 -8.4716 -121.406 57.3085C-83.4276 123.089 0.684939 145.627 66.465 107.649C132.245 69.6705 154.783 -14.442 116.805 -80.222C78.8271 -146.002 -5.28544 -168.54 -71.0655 -130.562Z" fill="url(#paint16_linear_5901_2)"/>
<path d="M-161.302 80.1929C-110.664 167.9 1.48585 197.95 89.1926 147.313C176.899 96.6752 206.95 -15.475 156.312 -103.182C105.675 -190.888 -6.47533 -220.939 -94.182 -170.301C-181.889 -119.664 -211.939 -7.51384 -161.302 80.1929Z" fill="url(#paint17_linear_5901_2)" stroke="url(#paint18_linear_5901_2)" stroke-width="8.16255" stroke-miterlimit="10"/>
<path d="M-42.2317 11.6372C-29.5723 33.5639 -1.53479 41.0765 20.3919 28.4172C42.3186 15.7578 49.8312 -12.2798 37.1718 -34.2064C24.5125 -56.1331 -3.52508 -63.6458 -25.4518 -50.9864C-47.3784 -38.327 -54.8911 -10.2895 -42.2317 11.6372Z" fill="url(#paint19_linear_5901_2)" stroke="url(#paint20_linear_5901_2)" stroke-width="8.16255" stroke-miterlimit="10"/>
<path d="M-81.9946 34.7549C-56.6759 78.6082 -0.600824 93.6335 43.2525 68.3148C87.1059 42.996 102.131 -13.079 76.8124 -56.9324C51.4937 -100.786 -4.58142 -115.811 -48.4348 -90.4923C-92.2881 -65.1735 -107.313 -9.09847 -81.9946 34.7549Z" fill="url(#paint21_linear_5901_2)" stroke="url(#paint22_linear_5901_2)" stroke-width="8.16255" stroke-miterlimit="10"/>
<path d="M-121.531 57.0765C-83.5529 122.857 0.559665 145.394 66.3397 107.416C132.12 69.4382 154.658 -14.6744 116.68 -80.4545C78.7014 -146.235 -5.4112 -168.772 -71.1913 -130.794C-136.971 -92.8162 -159.509 -8.70357 -121.531 57.0765Z" fill="url(#paint23_linear_5901_2)" stroke="url(#paint24_linear_5901_2)" stroke-width="8.16255" stroke-miterlimit="10"/>
<circle opacity="0.12" cx="183" cy="93" r="159" fill="white" fill-opacity="0.04" stroke="#2C317A" stroke-width="2" stroke-linecap="round" stroke-linejoin="round" stroke-dasharray="2.59 3.69"/>
<circle opacity="0.16" cx="183" cy="93" r="129" fill="white" fill-opacity="0.04" stroke="#2C317A" stroke-width="2" stroke-linecap="round" stroke-linejoin="round" stroke-dasharray="2.59 3.69"/>
<circle opacity="0.2" cx="183.175" cy="92.8728" r="102.331" fill="white" fill-opacity="0.04" stroke="#2C317A" stroke-width="2" stroke-linecap="round" stroke-linejoin="round" stroke-dasharray="2.59 3.69"/>
<circle opacity="0.35" cx="183" cy="93" r="77" fill="white" fill-opacity="0.04" stroke="#2C317A" stroke-width="2" stroke-linecap="round" stroke-linejoin="round" stroke-dasharray="3 5"/>
<path d="M93.0072 56.2397C91.997 56.825 90.7509 56.825 89.7407 56.2397L81.1306 51.2513C80.125 50.6687 79.5059 49.5945 79.5059 48.4323L79.5059 38.4272C79.5059 37.265 80.125 36.1908 81.1306 35.6082L89.7407 30.6198C90.7509 30.0345 91.997 30.0345 93.0072 30.6198L101.617 35.6082C102.623 36.1908 103.242 37.265 103.242 38.4272L103.242 48.4323C103.242 49.5945 102.623 50.6687 101.617 51.2513L93.0072 56.2397Z" fill="#1F2149" stroke="#7076C2" stroke-width="2.89595"/>
<path d="M92.84 46.8171C92.1709 46.8171 91.6546 46.6136 91.2895 46.2065C90.9453 45.8223 90.762 45.2771 90.7281 44.5822H93.3171V43.7342H90.7111V42.8867H93.3171V42.0386H90.7416C90.7891 41.3932 90.9695 40.8815 91.2982 40.519C91.657 40.1231 92.1685 39.9254 92.8332 39.9254C93.2788 39.9254 93.7229 39.9937 94.1645 40.1299L94.2867 39.1898C93.7393 39.0701 93.2511 39.01 92.8216 39.01C91.8369 39.01 91.0553 39.2891 90.4779 39.8469C89.9349 40.3712 89.6391 41.1078 89.5708 42.0386H88.4688V42.8867H89.5596V43.7347H88.4688V44.5827H89.562C89.6071 45.563 89.8995 46.3325 90.4536 46.8786C91.0311 47.448 91.8223 47.7325 92.8274 47.7325C93.3137 47.7325 93.7999 47.6738 94.2867 47.5566L94.165 46.6189C93.7519 46.7512 93.3098 46.8171 92.84 46.8171Z" fill="#CCD0FF"/>
<path d="M335.743 118.62C336.753 118.034 337.999 118.034 339.009 118.62L347.619 123.608C348.625 124.191 349.244 125.265 349.244 126.427V136.432C349.244 137.594 348.625 138.669 347.619 139.251L339.009 144.24C337.999 144.825 336.753 144.825 335.743 144.24L327.133 139.251C326.127 138.669 325.508 137.594 325.508 136.432V126.427C325.508 125.265 326.127 124.191 327.133 123.608L335.743 118.62Z" fill="#1F2149" stroke="#7076C2" stroke-width="2.89595"/>
<path d="M335.853 135.003C336.089 134.651 336.209 134.186 336.209 133.603L336.181 132.459H338.348V131.611H336.129L336.075 129.807C336.075 129.319 336.207 128.923 336.47 128.622C336.734 128.32 337.078 128.17 337.504 128.17C337.953 128.17 338.307 128.292 338.564 128.535C338.822 128.778 338.95 129.11 338.95 129.529V129.672H340.11L340.111 129.529C340.111 128.837 339.886 128.284 339.436 127.871C338.986 127.457 338.376 127.249 337.607 127.249C336.796 127.249 336.143 127.482 335.646 127.946C335.15 128.411 334.902 129.033 334.902 129.81L334.956 131.611H333.984V132.459H334.993L335.036 133.609V133.656C335.028 134.031 334.973 134.347 334.872 134.602C334.79 134.809 334.687 134.94 334.566 135.003H333.984V135.972H340.287V135.003H335.853Z" fill="#CCD0FF"/>
<path d="M24.7428 56.6197C25.753 56.0344 26.9991 56.0344 28.0093 56.6197L36.6194 61.608C37.625 62.1907 38.2441 63.2649 38.2441 64.4271V74.4322C38.2441 75.5944 37.625 76.6686 36.6194 77.2512L28.0093 82.2396C26.9991 82.8249 25.753 82.8249 24.7428 82.2396L16.1327 77.2512C15.1271 76.6686 14.508 75.5944 14.508 74.4322V64.4271C14.508 63.2649 15.1271 62.1907 16.1327 61.608L24.7428 56.6197Z" fill="#1F2149" stroke="#7076C2" stroke-width="2.89595"/>
<path d="M24.8529 73.0028C25.0885 72.651 25.2088 72.1863 25.2088 71.6033L25.1807 70.4588H27.3479V69.6107H25.1293L25.075 67.8076C25.075 67.3187 25.2068 66.9233 25.4701 66.6218C25.7338 66.3204 26.0781 66.1702 26.5038 66.1702C26.9532 66.1702 27.3066 66.2918 27.5641 66.5346C27.8215 66.7784 27.95 67.1098 27.95 67.529V67.6719H29.1102L29.1107 67.529C29.1107 66.8375 28.8857 66.2846 28.4358 65.8707C27.9859 65.4569 27.3765 65.2495 26.6065 65.2495C25.7964 65.2495 25.1428 65.4816 24.6464 65.9463C24.1499 66.4115 23.9022 67.0328 23.9022 67.81L23.956 69.6107H22.9844V70.4588H23.9933L24.036 71.6092V71.6562C24.0277 72.0312 23.9729 72.3467 23.8721 72.6026C23.7902 72.809 23.6874 72.9403 23.5662 73.0028H22.9844V73.972H29.2872V73.0028H24.8529Z" fill="#CCD0FF"/>
<path d="M63.7428 134.62C64.753 134.034 65.9991 134.034 67.0093 134.62L75.6194 139.608C76.625 140.191 77.2441 141.265 77.2441 142.427V152.432C77.2441 153.594 76.625 154.669 75.6194 155.251L67.0093 160.24C65.9991 160.825 64.753 160.825 63.7428 160.24L55.1327 155.251C54.1271 154.669 53.508 153.594 53.508 152.432V142.427C53.508 141.265 54.1271 140.191 55.1327 139.608L63.7428 134.62Z" fill="#1F2149" stroke="#7076C2" stroke-width="2.89595"/>
<path d="M67.2853 147.653C66.929 147.43 66.433 147.226 65.7979 147.041C65.1627 146.856 64.7065 146.65 64.4297 146.422C64.1524 146.196 64.0137 145.891 64.0137 145.509C64.0137 145.097 64.1451 144.775 64.4079 144.545C64.6702 144.314 65.0493 144.2 65.5448 144.2C66.0194 144.2 66.3971 144.355 66.6759 144.667C66.9552 144.978 67.0948 145.398 67.0948 145.927L67.0943 145.966H68.2443L68.2448 145.928C68.2448 145.161 68.0504 144.557 67.6606 144.115C67.2708 143.674 66.7263 143.41 66.0262 143.324L66.0228 143.324V142.09H65.0532V143.326C64.3783 143.406 63.844 143.636 63.4547 144.02C63.0566 144.413 62.8574 144.916 62.8574 145.529C62.8574 146.132 63.0605 146.628 63.4668 147.019C63.8731 147.41 64.5199 147.727 65.4071 147.971C66.0447 148.162 66.4975 148.375 66.7666 148.61C67.0347 148.846 67.1695 149.136 67.1695 149.48C67.1695 149.888 67.0129 150.21 66.7006 150.445C66.3879 150.681 65.9588 150.799 65.4129 150.799C64.8549 150.799 64.4234 150.659 64.1194 150.378C63.8154 150.097 63.6636 149.697 63.6636 149.177H62.5078C62.5078 149.918 62.7274 150.504 63.1667 150.936C63.5948 151.357 64.1853 151.6 64.932 151.671V152.751H65.9016V151.68L65.9137 151.679C66.6759 151.608 67.2688 151.38 67.6916 150.994C68.1139 150.609 68.3258 150.1 68.3258 149.468C68.3258 149.072 68.2409 148.726 68.0727 148.43C67.904 148.135 67.6412 147.876 67.2853 147.653Z" fill="#CCD0FF"/>
<path d="M262.743 17.6197C263.753 17.0344 264.999 17.0344 266.009 17.6197L274.619 22.608C275.625 23.1907 276.244 24.2649 276.244 25.4271V35.4322C276.244 36.5944 275.625 37.6686 274.619 38.2512L266.009 43.2396C264.999 43.8249 263.753 43.8249 262.743 43.2396L254.133 38.2512C253.127 37.6686 252.508 36.5944 252.508 35.4322V25.4271C252.508 24.2649 253.127 23.1907 254.133 22.608L262.743 17.6197Z" fill="#1F2149" stroke="#7076C2" stroke-width="2.89595"/>
<path d="M261.406 26.7229L263.86 31.0841H261.891V31.9322H264.194V32.659H261.891V33.507H264.194V35.4454H265.337L265.345 33.507H267.709V32.659H265.345V31.9322H267.709V31.0841H265.73L268.194 26.7229H266.921L264.8 30.7207L262.679 26.7229H261.406Z" fill="#CCD0FF"/>
<path d="M238.007 160.24C236.997 160.825 235.751 160.825 234.741 160.24L226.131 155.251C225.125 154.669 224.506 153.594 224.506 152.432L224.506 142.427C224.506 141.265 225.125 140.191 226.131 139.608L234.741 134.62C235.751 134.034 236.997 134.034 238.007 134.62L246.617 139.608C247.623 140.191 248.242 141.265 248.242 142.427L248.242 152.432C248.242 153.594 247.623 154.669 246.617 155.251L238.007 160.24Z" fill="#1F2149" stroke="#7076C2" stroke-width="2.89595"/>
<path d="M239.288 144.064V142.922H233.055V144.064H235.038C235.776 144.064 236.399 144.543 236.633 145.207H233.055V146.349H236.633C236.517 146.682 236.301 146.971 236.016 147.175C235.73 147.38 235.388 147.49 235.038 147.491H233.055V148.87L236.22 152.06H237.823L234.423 148.633H235.038C235.691 148.633 236.323 148.405 236.829 147.989C237.335 147.572 237.682 146.993 237.814 146.349H239.288V145.207H237.814C237.727 144.791 237.548 144.401 237.29 144.064H239.288Z" fill="#CCD0FF"/>
<path fill-rule="evenodd" clip-rule="evenodd" d="M217.167 86.13L220.922 83.0095C222.252 81.9036 222.596 79.9887 221.734 78.4819L214.32 65.5179C213.458 64.0111 211.643 63.3541 210.029 63.9645L205.474 65.6868C200.279 67.6516 194.598 64.3412 193.686 58.817L192.887 53.974C192.603 52.2579 191.132 51 189.409 51H174.579C172.856 51 171.385 52.2579 171.101 53.974L170.302 58.817C169.39 64.3412 163.709 67.6516 158.514 65.6868L153.959 63.9645C152.345 63.3541 150.53 64.0111 149.669 65.5179L142.254 78.4819C141.392 79.9887 141.736 81.9036 143.066 83.0095L146.822 86.13C151.105 89.6895 151.105 96.3103 146.822 99.8698L143.066 102.99C141.736 104.096 141.392 106.011 142.254 107.518L149.669 120.482C150.53 121.989 152.345 122.646 153.959 122.035L158.514 120.313C163.709 118.348 169.39 121.659 170.302 127.183L171.101 132.026C171.385 133.742 172.856 135 174.579 135H189.409C191.132 135 192.603 133.742 192.887 132.026L193.686 127.183C194.598 121.659 200.279 118.348 205.474 120.313L210.029 122.035C211.643 122.646 213.458 121.989 214.32 120.482L221.734 107.518C222.596 106.011 222.252 104.096 220.922 102.99L217.167 99.8698C212.883 96.3103 212.883 89.6895 217.167 86.13ZM181.994 107.298C189.891 107.298 196.292 100.896 196.292 93C196.292 85.1035 189.891 78.7021 181.994 78.7021C174.098 78.7021 167.696 85.1035 167.696 93C167.696 100.896 174.098 107.298 181.994 107.298Z" fill="white" fill-opacity="0.6"/>
<path d="M220.922 83.0095L221.88 84.1632L221.88 84.1632L220.922 83.0095ZM217.167 86.13L218.125 87.2836L218.125 87.2836L217.167 86.13ZM221.734 78.4819L223.036 77.7372L223.036 77.7372L221.734 78.4819ZM214.32 65.5179L215.622 64.7732L215.622 64.7732L214.32 65.5179ZM210.029 63.9645L210.559 65.3675L210.559 65.3675L210.029 63.9645ZM205.474 65.6868L204.944 64.2838L204.944 64.2838L205.474 65.6868ZM193.686 58.817L192.206 59.0614L192.206 59.0613L193.686 58.817ZM192.887 53.974L191.407 54.2183L192.887 53.974ZM171.101 53.974L172.581 54.2183L172.581 54.2184L171.101 53.974ZM170.302 58.817L168.822 58.5727L168.822 58.5726L170.302 58.817ZM158.514 65.6868L159.044 64.2838H159.044L158.514 65.6868ZM153.959 63.9645L154.49 62.5614H154.49L153.959 63.9645ZM149.669 65.5179L148.366 64.7732L148.366 64.7732L149.669 65.5179ZM142.254 78.4819L140.952 77.7372L140.952 77.7372L142.254 78.4819ZM143.066 83.0095L142.108 84.1632L142.108 84.1632L143.066 83.0095ZM146.822 86.13L147.78 84.9763L147.78 84.9763L146.822 86.13ZM146.822 99.8698L147.78 101.023L147.78 101.024L146.822 99.8698ZM143.066 102.99L142.108 101.837L142.108 101.837L143.066 102.99ZM142.254 107.518L140.952 108.263L140.952 108.263L142.254 107.518ZM149.669 120.482L148.366 121.227L148.366 121.227L149.669 120.482ZM153.959 122.035L154.49 123.438L154.49 123.438L153.959 122.035ZM158.514 120.313L159.044 121.716L159.044 121.716L158.514 120.313ZM170.302 127.183L168.822 127.427L168.822 127.427L170.302 127.183ZM171.101 132.026L172.581 131.781L172.581 131.781L171.101 132.026ZM192.887 132.026L191.407 131.782V131.782L192.887 132.026ZM193.686 127.183L192.206 126.939L192.206 126.938L193.686 127.183ZM205.474 120.313L204.944 121.716L204.944 121.716L205.474 120.313ZM210.029 122.035L210.559 120.632L210.559 120.632L210.029 122.035ZM214.32 120.482L215.622 121.227L215.622 121.227L214.32 120.482ZM221.734 107.518L223.036 108.263L223.036 108.263L221.734 107.518ZM220.922 102.99L221.88 101.837L221.88 101.837L220.922 102.99ZM217.167 99.8698L218.125 98.7162L218.125 98.7162L217.167 99.8698ZM221.88 84.1632L218.125 87.2836L216.208 84.9763L219.963 81.8559L221.88 84.1632ZM223.036 77.7372C224.258 79.8731 223.774 82.5895 221.88 84.1632L219.963 81.8559C220.731 81.2178 220.934 80.1043 220.432 79.2265L223.036 77.7372ZM215.622 64.7732L223.036 77.7372L220.432 79.2266L213.017 66.2627L215.622 64.7732ZM209.498 62.5615C211.808 61.6878 214.397 62.6322 215.622 64.7732L213.017 66.2627C212.518 65.39 211.478 65.0203 210.559 65.3675L209.498 62.5615ZM204.944 64.2838L209.498 62.5614L210.559 65.3675L206.005 67.0899L204.944 64.2838ZM195.166 58.5726C195.927 63.1778 200.648 65.9082 204.944 64.2838L206.005 67.0899C199.909 69.395 193.27 65.5047 192.206 59.0614L195.166 58.5726ZM194.367 53.7297L195.166 58.5727L192.206 59.0613L191.407 54.2183L194.367 53.7297ZM189.409 49.5C191.877 49.5 193.966 51.2992 194.367 53.7297L191.407 54.2183C191.241 53.2165 190.388 52.5 189.409 52.5V49.5ZM174.579 49.5H189.409V52.5H174.579V49.5ZM169.621 53.7297C170.023 51.2992 172.111 49.5 174.579 49.5V52.5C173.6 52.5 172.747 53.2165 172.581 54.2183L169.621 53.7297ZM168.822 58.5726L169.621 53.7296L172.581 54.2184L171.782 59.0614L168.822 58.5726ZM159.044 64.2838C163.34 65.9082 168.061 63.1778 168.822 58.5727L171.782 59.0613C170.718 65.5047 164.079 69.3949 157.983 67.0899L159.044 64.2838ZM154.49 62.5614L159.044 64.2838L157.983 67.0899L153.429 65.3675L154.49 62.5614ZM148.366 64.7732C149.591 62.6321 152.18 61.6879 154.49 62.5614L153.429 65.3675C152.51 65.0202 151.47 65.3901 150.971 66.2627L148.366 64.7732ZM140.952 77.7372L148.366 64.7732L150.971 66.2627L143.556 79.2266L140.952 77.7372ZM142.108 84.1632C140.214 82.5895 139.73 79.8731 140.952 77.7372L143.556 79.2266C143.054 80.1043 143.257 81.2178 144.025 81.8559L142.108 84.1632ZM145.863 87.2836L142.108 84.1632L144.025 81.8558L147.78 84.9763L145.863 87.2836ZM145.863 98.7162C149.424 95.7565 149.424 90.2433 145.863 87.2836L147.78 84.9763C152.785 89.1356 152.785 96.8642 147.78 101.023L145.863 98.7162ZM142.108 101.837L145.863 98.7162L147.78 101.024L144.025 104.144L142.108 101.837ZM140.952 108.263C139.73 106.127 140.214 103.41 142.108 101.837L144.025 104.144C143.257 104.782 143.054 105.896 143.556 106.773L140.952 108.263ZM148.366 121.227L140.952 108.263L143.556 106.773L150.971 119.737L148.366 121.227ZM154.49 123.438C152.18 124.312 149.591 123.368 148.366 121.227L150.971 119.737C151.47 120.61 152.51 120.98 153.429 120.632L154.49 123.438ZM159.044 121.716L154.49 123.438L153.429 120.632L157.983 118.91L159.044 121.716ZM168.822 127.427C168.061 122.822 163.34 120.092 159.044 121.716L157.983 118.91C164.079 116.605 170.718 120.495 171.782 126.939L168.822 127.427ZM169.621 132.27L168.822 127.427L171.782 126.938L172.581 131.781L169.621 132.27ZM174.579 136.5C172.111 136.5 170.023 134.7 169.621 132.27L172.581 131.781C172.747 132.783 173.6 133.5 174.579 133.5V136.5ZM189.409 136.5H174.579V133.5H189.409V136.5ZM194.367 132.27C193.966 134.7 191.877 136.5 189.409 136.5V133.5C190.388 133.5 191.241 132.783 191.407 131.782L194.367 132.27ZM195.166 127.427L194.367 132.27L191.407 131.782L192.206 126.939L195.166 127.427ZM204.944 121.716C200.648 120.092 195.927 122.822 195.166 127.427L192.206 126.938C193.27 120.495 199.909 116.605 206.005 118.91L204.944 121.716ZM209.498 123.438L204.944 121.716L206.005 118.91L210.559 120.632L209.498 123.438ZM215.622 121.227C214.397 123.368 211.808 124.312 209.498 123.438L210.559 120.632C211.478 120.98 212.518 120.61 213.017 119.737L215.622 121.227ZM223.036 108.263L215.622 121.227L213.017 119.737L220.432 106.773L223.036 108.263ZM221.88 101.837C223.774 103.41 224.258 106.127 223.036 108.263L220.432 106.773C220.934 105.896 220.731 104.782 219.963 104.144L221.88 101.837ZM218.125 98.7162L221.88 101.837L219.963 104.144L216.208 101.023L218.125 98.7162ZM218.125 87.2836C214.564 90.2434 214.564 95.7565 218.125 98.7162L216.208 101.024C211.203 96.8642 211.203 89.1356 216.208 84.9763L218.125 87.2836ZM197.792 93C197.792 101.725 190.719 108.798 181.994 108.798V105.798C189.062 105.798 194.792 100.068 194.792 93H197.792ZM181.994 77.2021C190.719 77.2021 197.792 84.2751 197.792 93H194.792C194.792 85.9319 189.062 80.2021 181.994 80.2021V77.2021ZM166.196 93C166.196 84.2751 173.269 77.2021 181.994 77.2021V80.2021C174.926 80.2021 169.196 85.9319 169.196 93H166.196ZM181.994 108.798C173.269 108.798 166.196 101.725 166.196 93H169.196C169.196 100.068 174.926 105.798 181.994 105.798V108.798Z" fill="#9BA2FF"/>
</g>
<defs>
<radialGradient id="paint0_radial_5901_2" cx="0" cy="0" r="1" gradientUnits="userSpaceOnUse" gradientTransform="translate(183.992 91) rotate(90) scale(91 184)">
<stop stop-color="#9BA2FF" stop-opacity="0.6"/>
<stop offset="1" stop-color="#9BA2FF" stop-opacity="0.14"/>
</radialGradient>
<linearGradient id="paint1_linear_5901_2" x1="532.646" y1="137.897" x2="262.523" y2="-329.971" gradientUnits="userSpaceOnUse">
<stop stop-color="#9BA2FF" stop-opacity="0"/>
<stop offset="1" stop-color="#9BA2FF"/>
</linearGradient>
<linearGradient id="paint2_linear_5901_2" x1="401.494" y1="183.413" x2="333.963" y2="66.4463" gradientUnits="userSpaceOnUse">
<stop stop-color="#9BA2FF" stop-opacity="0"/>
<stop offset="1" stop-color="#9BA2FF"/>
</linearGradient>
<linearGradient id="paint3_linear_5901_2" x1="445.479" y1="168.312" x2="310.418" y2="-65.6217" gradientUnits="userSpaceOnUse">
<stop stop-color="#9BA2FF" stop-opacity="0"/>
<stop offset="1" stop-color="#9BA2FF"/>
</linearGradient>
<linearGradient id="paint4_linear_5901_2" x1="488.661" y1="152.995" x2="286.068" y2="-197.906" gradientUnits="userSpaceOnUse">
<stop stop-color="#9BA2FF" stop-opacity="0"/>
<stop offset="1" stop-color="#9BA2FF"/>
</linearGradient>
<linearGradient id="paint5_linear_5901_2" x1="296.886" y1="23.3579" x2="-170.982" y2="293.482" gradientUnits="userSpaceOnUse">
<stop stop-color="#9BA2FF" stop-opacity="0"/>
<stop offset="1" stop-color="#9BA2FF"/>
</linearGradient>
<linearGradient id="paint6_linear_5901_2" x1="502.854" y1="363.283" x2="395.596" y2="177.507" gradientUnits="userSpaceOnUse">
<stop stop-color="#9BA2FF"/>
<stop offset="1" stop-color="#9BA2FF" stop-opacity="0"/>
</linearGradient>
<linearGradient id="paint7_linear_5901_2" x1="342.384" y1="154.5" x2="225.417" y2="222.031" gradientUnits="userSpaceOnUse">
<stop stop-color="#9BA2FF" stop-opacity="0"/>
<stop offset="1" stop-color="#9BA2FF"/>
</linearGradient>
<linearGradient id="paint8_linear_5901_2" x1="393.876" y1="239.482" x2="367.061" y2="193.038" gradientUnits="userSpaceOnUse">
<stop stop-color="#9BA2FF"/>
<stop offset="1" stop-color="#9BA2FF" stop-opacity="0"/>
</linearGradient>
<linearGradient id="paint9_linear_5901_2" x1="327.291" y1="110.521" x2="93.3567" y2="245.583" gradientUnits="userSpaceOnUse">
<stop stop-color="#9BA2FF" stop-opacity="0"/>
<stop offset="1" stop-color="#9BA2FF"/>
</linearGradient>
<linearGradient id="paint10_linear_5901_2" x1="430.275" y1="280.483" x2="376.646" y2="187.595" gradientUnits="userSpaceOnUse">
<stop stop-color="#9BA2FF"/>
<stop offset="1" stop-color="#9BA2FF" stop-opacity="0"/>
</linearGradient>
<linearGradient id="paint11_linear_5901_2" x1="311.971" y1="67.3366" x2="-38.9299" y2="269.93" gradientUnits="userSpaceOnUse">
<stop stop-color="#9BA2FF" stop-opacity="0"/>
<stop offset="1" stop-color="#9BA2FF"/>
</linearGradient>
<linearGradient id="paint12_linear_5901_2" x1="466.447" y1="322.28" x2="386.004" y2="182.948" gradientUnits="userSpaceOnUse">
<stop stop-color="#9BA2FF"/>
<stop offset="1" stop-color="#9BA2FF" stop-opacity="0"/>
</linearGradient>
<linearGradient id="paint13_linear_5901_2" x1="-177.639" y1="49.103" x2="92.4847" y2="516.971" gradientUnits="userSpaceOnUse">
<stop stop-color="#9BA2FF" stop-opacity="0"/>
<stop offset="1" stop-color="#9BA2FF"/>
</linearGradient>
<linearGradient id="paint14_linear_5901_2" x1="-46.4858" y1="3.58698" x2="21.045" y2="120.554" gradientUnits="userSpaceOnUse">
<stop stop-color="#9BA2FF" stop-opacity="0"/>
<stop offset="1" stop-color="#9BA2FF"/>
</linearGradient>
<linearGradient id="paint15_linear_5901_2" x1="-90.4716" y1="18.6878" x2="44.59" y2="252.622" gradientUnits="userSpaceOnUse">
<stop stop-color="#9BA2FF" stop-opacity="0"/>
<stop offset="1" stop-color="#9BA2FF"/>
</linearGradient>
<linearGradient id="paint16_linear_5901_2" x1="-133.653" y1="34.0055" x2="68.9397" y2="384.906" gradientUnits="userSpaceOnUse">
<stop stop-color="#9BA2FF" stop-opacity="0"/>
<stop offset="1" stop-color="#9BA2FF"/>
</linearGradient>
<linearGradient id="paint17_linear_5901_2" x1="58.122" y1="163.642" x2="525.99" y2="-106.482" gradientUnits="userSpaceOnUse">
<stop stop-color="#9BA2FF" stop-opacity="0"/>
<stop offset="1" stop-color="#9BA2FF"/>
</linearGradient>
<linearGradient id="paint18_linear_5901_2" x1="-147.846" y1="-176.282" x2="-40.5884" y2="9.49352" gradientUnits="userSpaceOnUse">
<stop stop-color="#9BA2FF"/>
<stop offset="1" stop-color="#9BA2FF" stop-opacity="0"/>
</linearGradient>
<linearGradient id="paint19_linear_5901_2" x1="12.6242" y1="32.4996" x2="129.591" y2="-35.0315" gradientUnits="userSpaceOnUse">
<stop stop-color="#9BA2FF" stop-opacity="0"/>
<stop offset="1" stop-color="#9BA2FF"/>
</linearGradient>
<linearGradient id="paint20_linear_5901_2" x1="-38.8678" y1="-52.4816" x2="-12.0534" y2="-6.03763" gradientUnits="userSpaceOnUse">
<stop stop-color="#9BA2FF"/>
<stop offset="1" stop-color="#9BA2FF" stop-opacity="0"/>
</linearGradient>
<linearGradient id="paint21_linear_5901_2" x1="27.7172" y1="76.4796" x2="261.651" y2="-58.5825" gradientUnits="userSpaceOnUse">
<stop stop-color="#9BA2FF" stop-opacity="0"/>
<stop offset="1" stop-color="#9BA2FF"/>
</linearGradient>
<linearGradient id="paint22_linear_5901_2" x1="-75.2669" y1="-93.4827" x2="-21.638" y2="-0.594794" gradientUnits="userSpaceOnUse">
<stop stop-color="#9BA2FF"/>
<stop offset="1" stop-color="#9BA2FF" stop-opacity="0"/>
</linearGradient>
<linearGradient id="paint23_linear_5901_2" x1="43.0368" y1="119.664" x2="393.938" y2="-82.9296" gradientUnits="userSpaceOnUse">
<stop stop-color="#9BA2FF" stop-opacity="0"/>
<stop offset="1" stop-color="#9BA2FF"/>
</linearGradient>
<linearGradient id="paint24_linear_5901_2" x1="-111.44" y1="-135.28" x2="-30.996" y2="4.05194" gradientUnits="userSpaceOnUse">
<stop stop-color="#9BA2FF"/>
<stop offset="1" stop-color="#9BA2FF" stop-opacity="0"/>
</linearGradient>
</defs>
</svg>
