<svg
                width="354"
                height="64"
                viewbox="0 0 354 64"
                fill="none"
                xmlns="http://www.w3.org/2000/svg"
              >
                <path
                  d="M333.165 40.874L333.486 39.9059L338.722 20.437H352.078L354.001 13.3378H340.538L342.675 5.37817H325.686L323.549 13.3378H299.507H299.4L292.027 41.3042C291.707 42.2723 290.852 43.0252 289.784 43.0252H281.556C280.594 43.0252 279.953 42.1647 280.167 41.1967V41.0891L287.54 13.3378H270.871L264.032 39.153C263.925 39.3681 263.819 40.2286 263.819 40.3362C263.391 42.8101 263.712 45.1765 264.673 46.8975C265.849 48.9412 267.879 50.232 270.978 50.232H306.452L314.359 20.5446H321.732L316.176 41.5194C314.894 46.2521 317.992 50.232 322.694 50.232H344.919L346.842 43.1328H334.661C334.554 43.1328 334.127 43.1328 333.806 43.0252C333.7 43.0252 333.7 42.9177 333.593 42.9177C333.486 42.9177 333.379 42.8101 333.272 42.7025C333.059 42.595 332.952 42.3799 332.952 42.1647C333.059 41.7345 333.059 41.4118 333.165 40.874Z"
                  fill="#2C317A"
                ></path>
                <path
                  d="M9.72351 13.1228L0 50.1245H16.6689L26.4992 13.1228H9.72351Z"
                  fill="#2C317A"
                ></path>
                <path
                  d="M29.8087 0H13.3535L10.7891 9.57311H27.2442L29.8087 0Z"
                  fill="#2C317A"
                ></path>
                <path
                  d="M63.7897 27.7512H27.1396L25.1094 35.1731H61.8664L63.7897 27.7512Z"
                  fill="#2C317A"
                ></path>
                <path
                  d="M115.506 23.4488C115.613 23.1261 115.613 22.6959 115.719 22.3732C115.826 22.0505 115.826 21.7278 115.933 21.4051C115.933 21.0824 115.933 20.7597 115.933 20.5446C115.933 20.1144 115.933 19.5765 115.933 19.1463C115.933 18.716 115.826 18.2858 115.613 17.8555C115.506 17.5328 115.399 17.2102 115.185 16.8875C114.971 16.5648 114.865 16.2421 114.651 15.9194C114.437 15.5967 114.117 15.1665 113.796 14.9513C113.476 14.6286 113.048 14.4135 112.621 14.1984C112.407 14.0908 112.086 13.9833 111.766 13.8757C111.445 13.7681 111.125 13.6606 110.804 13.553C110.484 13.553 110.27 13.4455 109.949 13.4455C109.629 13.4455 109.308 13.3379 108.988 13.3379H73.1924L59.8359 64.0001H76.5048L80.1378 50.1244H99.1574C99.478 50.1244 99.9054 50.1244 100.333 50.0169C100.76 50.0169 101.081 49.9093 101.508 49.8018C101.829 49.8018 102.256 49.6942 102.684 49.4791C103.111 49.3715 103.431 49.1564 103.859 49.0488C104.179 48.9412 104.393 48.7261 104.714 48.6186C105.034 48.4034 105.248 48.2959 105.569 48.0807C105.782 47.8656 106.103 47.6505 106.316 47.4354C106.637 47.2202 106.851 47.0051 107.064 46.6824C107.385 46.4673 107.599 46.1446 107.812 45.9295C108.026 45.6068 108.347 45.2841 108.56 44.9614C108.774 44.6387 108.988 44.316 109.308 43.8858C109.522 43.5631 109.736 43.1328 109.949 42.8102C110.056 42.4875 110.27 42.2723 110.377 41.9497C110.591 41.627 110.697 41.3043 110.804 40.874C110.911 40.5513 111.018 40.2286 111.125 39.906C111.232 39.5833 111.339 39.153 111.445 38.8303L115.292 24.5244C115.292 24.2018 115.399 23.8791 115.506 23.4488ZM98.9437 22.4807L94.1354 40.7665C93.8148 41.8421 92.8531 42.8102 91.6778 42.8102H83.9844C82.8091 42.8102 82.3817 41.7345 82.4885 40.874L87.4037 22.6959C87.6174 21.6202 88.6859 20.5446 89.6476 20.437H97.4478C98.6231 20.5446 99.1574 21.5127 98.9437 22.4807Z"
                  fill="#2C317A"
                ></path>
                <path
                  d="M156.43 13.1228H124.482L122.558 20.3295H145.532C146.6 20.3295 147.455 21.19 147.348 22.2657C147.241 23.8791 145.745 25.1699 144.036 25.1699H126.833C126.085 25.1699 125.337 25.2774 124.589 25.385C123.841 25.4925 123.2 25.7077 122.452 26.0304C122.131 26.1379 121.704 26.3531 121.383 26.5682C121.063 26.7833 120.635 27.106 120.315 27.3211C119.994 27.5362 119.78 27.8589 119.46 28.0741C119.139 28.3967 118.926 28.7194 118.605 29.0421C118.391 29.3648 118.178 29.6875 117.964 30.0102C117.75 30.3329 117.536 30.7631 117.43 31.0858C117.216 31.4085 117.109 31.8388 116.895 32.1615C116.682 32.4841 116.575 32.9144 116.468 33.2371C116.361 33.5598 116.254 33.99 116.147 34.4203C116.041 34.8505 115.934 35.1732 115.827 35.4959C115.72 35.8186 115.613 36.1413 115.506 36.5715C115.399 36.8942 115.293 37.3245 115.293 37.6472C115.186 37.9699 115.079 38.2925 114.972 38.7228C114.865 39.1531 114.758 39.4757 114.651 39.906C114.651 40.2287 114.545 40.6589 114.438 41.0892C114.331 41.5194 114.224 41.9497 114.224 42.2724C114.224 42.5951 114.117 43.0253 114.117 43.4556C114.117 43.8858 114.117 44.2085 114.117 44.6388C114.117 44.9615 114.117 45.3917 114.224 45.7144C114.224 46.0371 114.331 46.3598 114.438 46.6825C114.545 47.0052 114.651 47.2203 114.758 47.543C114.865 47.8657 114.972 48.0808 115.186 48.2959C115.399 48.511 115.613 48.7262 115.72 48.9413C115.934 49.1564 116.147 49.264 116.361 49.3715C116.682 49.4791 116.895 49.6942 117.216 49.8018C117.536 49.9094 117.75 50.0169 118.071 50.0169C118.712 50.1245 119.353 50.232 120.208 50.232H135.701C138.373 50.232 140.616 48.6186 141.792 46.3598V50.232H156.644L163.055 26.1379C164.872 19.8993 164.338 13.1228 156.43 13.1228ZM142.433 40.5514C142.112 41.8421 141.044 42.8102 139.762 42.8102H133.03C131.855 42.8102 131.107 41.5194 131.427 40.4438L132.816 35.1732C133.244 33.5598 134.74 32.269 136.449 32.269H144.677L142.433 40.5514Z"
                  fill="#2C317A"
                ></path>
                <path
                  d="M198.639 13.3379L191.373 40.7665C191.159 41.627 190.305 42.8102 189.236 42.8102H181.65C180.688 42.8102 179.94 41.5194 180.26 40.5514L187.526 13.1228H170.751L164.019 38.7228C162.416 43.8858 164.553 50.3396 170.858 50.1245H189.022L187.74 54.6421C187.313 55.9329 185.817 56.6858 184.641 56.6858H161.348L159.531 63.785H193.938C198.746 63.785 203.02 59.8051 204.302 55.0724L215.415 13.3379H198.639Z"
                  fill="#2C317A"
                ></path>
                <path
                  d="M264.352 18.5008V18.2857C264.138 14.3059 260.933 13.2302 257.513 13.2302C254.735 13.2302 232.724 13.2302 229.091 13.2302C228.984 13.2302 228.877 13.2302 228.77 13.2302C226.419 13.2302 224.069 13.8756 222.359 15.3815C219.367 17.8554 218.299 21.5126 217.444 25.1697C216.375 29.3647 214.452 36.4638 213.49 40.2285C211.781 45.3916 213.277 50.0168 219.688 50.0168C226.206 50.0168 246.508 50.0168 248.004 50.0168C255.269 50.0168 258.368 44.6386 259.65 38.2924C260.505 35.0655 262.215 28.8269 263.07 25.4924C263.711 23.126 264.459 20.9748 264.352 18.5008ZM247.149 22.4806C247.149 22.6958 247.042 23.0185 247.042 23.2336C245.546 28.9344 243.943 34.6353 242.447 40.4437C242.234 41.1966 242.02 41.9496 241.486 42.3798C240.844 42.9176 239.99 42.9176 239.135 42.9176C236.891 42.9176 234.647 42.9176 232.296 42.9176C231.655 42.9176 230.694 42.8101 230.266 42.2722C229.946 41.7344 230.052 41.089 230.266 40.4437C231.869 34.6353 233.365 28.8269 234.968 22.9109C235.395 21.2975 236.25 20.5445 237.853 20.6521C240.097 20.6521 242.34 20.6521 244.584 20.6521C245.119 20.6521 245.653 20.6521 246.08 20.7596C246.614 20.8672 247.042 21.2975 247.149 21.7277C247.149 21.9428 247.149 22.2655 247.149 22.4806Z"
                  fill="#2C317A"
                ></path>
              </svg>